# xmcd
#
# Track frame offsets: 
#        225
#        15712
#        29569
#        44318
#        58205
#        72645
#        91011
#        120126
#        137218
#        156799
#
# Disc length: 2241 seconds
#
# Revision: 0
# Processed by: cddbd v1.5.2PL0 Copyright (c) Steve Scherf et al.
# Submitted via: ExactAudioCopyFreeDBPlugin 1.0
#
DISCID=8508be0a
DTITLE=Woodard, Alex - Mile High
DYEAR=2005
DGENRE=Roots Rock
TTITLE0=Mile High
TTITLE1=Wonderful
TTITLE2=I Know It's True
TTITLE3=Take Good Care
TTITLE4=Voice on the Wire
TTITLE5=Blood Salt and Silver
TTITLE6=Breathing
TTITLE7=Steps
TTITLE8=Beautiful
TTITLE9=Invitation
EXTD=
EXTT0=
EXTT1=
EXTT2=
EXTT3=
EXTT4=
EXTT5=
EXTT6=
EXTT7=
EXTT8=
EXTT9=
PLAYORDER=
